<svg width="20" height="21" viewBox="0 0 20 21" fill="none" xmlns="http://www.w3.org/2000/svg">
<path d="M10 19C14.018 15.7256 14.0891 22.3574 19 17M1.06616 16.3151C1.07546 15.9381 1.08011 15.7497 1.12568 15.5726C1.16608 15.4156 1.23007 15.2658 1.31544 15.1282C1.41171 14.973 1.54444 14.8396 1.8099 14.573L14.8626 1.46297C15.3862 0.937079 16.204 0.848959 16.8267 1.25131C17.565 1.7283 18.1957 2.3551 18.6785 3.09146L18.7123 3.14307C18.7368 3.18037 18.749 3.19902 18.7594 3.21582C19.1427 3.83327 19.0616 4.63294 18.5622 5.16005C18.5486 5.17439 18.5329 5.19018 18.5014 5.22177L5.52811 18.2521C5.25274 18.5287 5.11505 18.6669 4.95435 18.7658C4.81188 18.8534 4.65654 18.9178 4.49406 18.9568C4.31079 19.0008 4.11608 19.0005 3.72665 18.9999L1 18.9955L1.06616 16.3151Z" stroke="#475569" stroke-width="2" stroke-linecap="round" stroke-linejoin="round"/>
</svg>
